<?xml version="1.0" encoding="utf-8"?>
<!-- Generator: Adobe Illustrator 18.1.1, SVG Export Plug-In . SVG Version: 6.00 Build 0)  -->
<svg version="1.1" id="Layer_1" xmlns="http://www.w3.org/2000/svg" xmlns:xlink="http://www.w3.org/1999/xlink" x="0px" y="0px"
	 viewBox="0.5 616.2 1257.5 240.9" enable-background="new 0.5 616.2 1257.5 240.9" xml:space="preserve">
<g>
	<g>
		<path fill="#FF0033" d="M41.5,618.2l27.3,126.7H52l-4.7-24.2H22.1l-4.7,24.7H0.5l27.9-127.2H41.5z M41,689.2l-6.3-46.3l0,0
			l-10.5,64.7h20L41,689.2z"/>
		<path fill="#FF0033" d="M115.6,618.2l17.9,91.5h0.5l0.5-5.3l5.3-30.5l11-55.7h14.7l11.6,126.7h-16.3l-3.2-47.3l-1.1-23.7
			l-0.5-16.8h-0.5l-2.6,18.4l-13.1,69.4h-11.6l-16.8-87.3h-0.5l-4.7,87.3H90.4l10.5-126.7H115.6z"/>
		<path fill="#FF0033" d="M239.2,618.2l27.3,126.7h-16.8l-4.7-24.7h-25.2l-4.7,24.7h-16.3L226,618.2H239.2z M238.7,689.2l-6.3-46.3
			h-0.5l-10,64.7h20L238.7,689.2z"/>
		<path fill="#FF0033" d="M294.4,618.2h20c12.1,0,31.5,0.5,31.5,32.6c0,12.1-3.7,30-17.3,32.6l23.1,61.5h-17.3l-23.1-62h-0.5v62
			h-16.3V618.2H294.4z M328,654.5c0-12.1-1.6-22.1-14.2-22.1h-2.6v42.1C323.8,675.5,328,667.1,328,654.5z"/>
		<path fill="#FF0033" d="M426.3,618.2v14.7h-28.4v40h25.2v14.7h-25.2v43.1h28.4v14.7h-45.2V618.2H426.3z"/>
		<path fill="#FF0033" d="M470.5,656l2.6,42.6v46.8h-16.8V618.2h16.3l29.4,96.2l0.5-0.5l-4.2-50.5v-45.2h16.8v126.7h-15.8
			l-29.4-97.2h-0.5L470.5,656z"/>
		<path fill="#FF0033" d="M584,618.2l27.3,126.7H594l-4.7-24.7H564l-4.7,24.7H543l27.3-126.7H584z M583.5,689.2l-6.3-46.3h-0.5
			l-10,64.7h20L583.5,689.2z"/>
		<path fill="#333333" d="M690.7,745.4V618.2h13.1c18.4,0,34.2,1.6,34.2,33.1c0,24.7-8.4,33.1-32.6,33.1h-3.2v61H690.7L690.7,745.4z
			 M702.3,673.9h4.7c16.3,0,18.4-6.3,18.9-22.6c0-17.3-4.7-22.1-21-22.1h-2.1v44.7H702.3z"/>
		<path fill="#333333" d="M779.6,745.4h-12.1V618.2H779v127.2H779.6z"/>
		<path fill="#333333" d="M863.1,741.7c-4.2,3.2-10.5,5.3-16.3,5.3c-30,0-34.2-38.9-34.2-60.5c0-20.5,0.5-69.4,35.2-69.4
			c4.7,0,11,1.1,14.7,4.2v13.1c-4.7-3.2-8.9-5.8-14.7-5.8c-20.5,0-23.1,30-23.1,53.1c0,14.7,0,54.1,22.6,54.1c5.8,0,11-2.6,15.8-5.8
			V741.7z"/>
		<path fill="#333333" d="M936.2,629.2h-18.9v116.2h-11.6V629.2h-18.9v-10.5h49.9v10.5H936.2z"/>
		<path fill="#333333" d="M1016.6,704.9c0,23.1-2.1,42.1-26.8,42.1c-25.2,0-26.8-18.9-26.8-42.1v-86.7h11.6v86.2
			c0,21,1.1,31,14.7,31c13.7,0,14.7-10,14.7-31v-86.2h11.6v86.7H1016.6z"/>
		<path fill="#333333" d="M1053.4,745.4V618.2h12.6c17.9,0,34.7,1.6,34.7,32.1c0,16.3-3.7,32.1-23.7,32.6l27.9,62h-12.6l-26.8-62
			h-0.5v62h-11.6V745.4z M1065,673.4h4.2c16.3,0,18.9-5.8,18.9-22.6c0-20-6.3-22.1-21-22.1h-2.1V673.4L1065,673.4z"/>
		<path fill="#333333" d="M1174.3,629.2H1146v44.7h27.3v10.5H1146v49.9h27.9v10.5h-40V618.2h40v11H1174.3z"/>
		<path fill="#333333" d="M1252.1,638.2c-5.3-5.8-10.5-10.5-18.9-10.5c-11.6,0-18.4,10-18.4,20.5c0,14.7,10.5,21.6,21.6,28.9
			c10.5,7.4,21.6,15.8,21.6,33.1c0,18.4-12.1,35.7-31.5,35.7c-6.8,0-14.2-2.1-20-6.3v-15.2c5.3,5.8,12.6,10.5,20.5,10.5
			c12.6,0,19.4-11,18.9-22.6c0-14.7-10.5-21.6-21.6-28.9c-10.5-7.4-21.6-15.8-21.6-33.6c0-16.8,10.5-33.6,28.9-33.6
			c7.4,0,14.2,2.6,20,6.8v15.2H1252.1z"/>
	</g>
	<g enable-background="new    ">
		<path fill="#666666" d="M231.1,796.1l-1.6,9h6.7l-0.9,4.9h-6.7l-3.9,23.1c-0.1,0.6-0.1,1.1,0,1.6c0.2,1.8,1.1,2.7,2.9,2.7
			c0.8,0,1.8-0.1,3-0.3l-0.5,5.1c-1.5,0.4-3,0.6-4.5,0.6c-2.5,0-4.3-1-5.5-2.7c-1.2-1.8-1.7-4.1-1.4-7.1l3.8-22.9H216l0.9-4.9h6.5
			l1.6-9H231.1z"/>
		<path fill="#666666" d="M255.9,809.6c3.2-3.5,7-5.3,11.2-5.2c3.5,0,6,1.2,7.7,3.6c1.7,2.3,2.3,5.6,1.9,9.8l-4,24.2h-6.2l4.1-24.3
			c0.1-1.1,0.1-2.1,0-3.1c-0.4-3.2-2.3-4.8-5.6-4.9c-3.8-0.1-7,1.9-9.8,5.9l-4.6,26.3h-6.2l9.1-52.5h6.2L255.9,809.6z"/>
		<path fill="#666666" d="M305,842.7c-4.6-0.1-8.2-1.8-10.8-5.1c-2.6-3.3-3.7-7.5-3.3-12.7l0.2-1.5c0.4-3.7,1.5-7,3.3-10
			c1.8-3,4-5.3,6.5-6.9c2.6-1.5,5.4-2.3,8.3-2.2c3.8,0.1,6.8,1.4,9,3.8c2.2,2.4,3.3,5.7,3.6,9.9c0.1,1.5,0,3-0.1,4.4l-0.4,2.8h-24.2
			c-0.4,3.3,0.1,6.2,1.7,8.5c1.5,2.3,3.8,3.6,6.8,3.7c3.6,0.1,7-1.5,10.1-4.9l3.6,3c-1.5,2.2-3.5,4-6,5.2
			C310.8,842.1,308,842.8,305,842.7z M309,809.5c-2.6-0.1-4.8,0.8-6.7,2.6c-1.9,1.8-3.4,4.5-4.5,8l18,0l0.1-0.5
			c0.4-2.9-0.1-5.3-1.4-7.2C313.2,810.6,311.4,809.6,309,809.5z"/>
		<path fill="#666666" d="M358.3,823.5c0.5-3.8,1.5-7.2,3.1-10.2c1.6-3,3.6-5.3,6-6.8c2.4-1.5,5-2.2,7.8-2.2
			c4.1,0.1,7.3,1.6,9.5,4.5l3.6-19.3h6.2l-9.1,52.5h-5.6l0.6-4c-2.9,3.2-6.5,4.7-10.8,4.6c-3.4-0.1-6.1-1.4-8.2-4
			c-2-2.6-3.1-6.1-3.3-10.4C358,826.9,358.1,825.3,358.3,823.5z M364.2,827c-0.1,3.3,0.5,5.8,1.7,7.6s3,2.7,5.4,2.8
			c3.6,0.2,6.8-1.6,9.5-5.4l2.9-17.1c-1.4-3.4-3.9-5.1-7.5-5.2c-2.4-0.1-4.6,0.7-6.4,2.2c-1.9,1.5-3.3,3.7-4.2,6.5
			C364.7,821.1,364.2,824,364.2,827z"/>
		<path fill="#666666" d="M408.8,842h-6.2l6.4-37h6.2L408.8,842z M413.9,791.5c1,0,1.9,0.3,2.6,0.9c0.7,0.7,1,1.6,1,2.6
			c0,1.1-0.4,1.9-1,2.6c-0.7,0.7-1.5,1-2.6,1.1c-1.1,0-1.9-0.3-2.6-0.9c-0.7-0.7-1-1.5-1-2.6c0-1.1,0.4-2,1-2.7
			C412,792,412.8,791.6,413.9,791.5z"/>
		<path fill="#666666" d="M448.9,810.7l-2.9-0.3c-4,0-7.1,1.8-9.4,5.4l-4.5,26.3h-6.2l6.4-37l6,0l-0.9,4.3c2.6-3.4,5.7-5.1,9.3-5
			c0.8,0,1.7,0.2,2.9,0.5L448.9,810.7z"/>
		<path fill="#666666" d="M471.6,842.7c-4.6-0.1-8.2-1.8-10.8-5.1c-2.6-3.3-3.7-7.5-3.3-12.7l0.2-1.5c0.4-3.7,1.5-7,3.3-10
			c1.8-3,4-5.3,6.5-6.9c2.6-1.5,5.4-2.3,8.3-2.2c3.8,0.1,6.8,1.4,9,3.8c2.2,2.4,3.3,5.7,3.6,9.9c0.1,1.5,0,3-0.1,4.4l-0.4,2.8h-24.2
			c-0.4,3.3,0.1,6.2,1.7,8.5c1.5,2.3,3.8,3.6,6.8,3.7c3.6,0.1,7-1.5,10.1-4.9l3.6,3c-1.5,2.2-3.5,4-6,5.2
			C477.3,842.1,474.6,842.8,471.6,842.7z M475.5,809.5c-2.6-0.1-4.8,0.8-6.7,2.6c-1.9,1.8-3.4,4.5-4.5,8l18,0l0.1-0.5
			c0.4-2.9-0.1-5.3-1.4-7.2C479.8,810.6,477.9,809.6,475.5,809.5z"/>
		<path fill="#666666" d="M514.5,837.6c2.2,0,4.2-0.6,6-1.9c1.8-1.3,2.9-3.1,3.5-5.2l5.8,0c-0.3,2.3-1.3,4.4-2.8,6.4
			c-1.5,1.9-3.4,3.4-5.7,4.5c-2.3,1.1-4.7,1.6-7.1,1.5c-3.1,0-5.7-0.8-7.8-2.4c-2.1-1.6-3.7-3.7-4.7-6.5c-1-2.8-1.3-5.9-1-9.4
			l0.2-1.7c0.4-3.6,1.5-6.7,3.1-9.5s3.8-5,6.4-6.5c2.6-1.6,5.6-2.3,8.8-2.2c3.9,0.1,7,1.4,9.3,3.9c2.3,2.5,3.5,5.7,3.5,9.5l-5.8,0
			c0-2.4-0.7-4.4-2-5.9s-3.1-2.3-5.3-2.4c-3.2-0.1-5.9,1.1-8,3.6c-2.1,2.5-3.5,5.9-4,10.3l-0.1,0.9c-0.1,1.5-0.2,3-0.1,4.5
			c0.2,2.7,0.9,4.8,2.3,6.3C510.3,836.7,512.2,837.5,514.5,837.6z"/>
		<path fill="#666666" d="M558.1,796.1l-1.6,9h6.7l-0.9,4.9h-6.7l-3.9,23.1c-0.1,0.6-0.1,1.1,0,1.6c0.2,1.8,1.1,2.7,2.9,2.7
			c0.8,0,1.8-0.1,3-0.3l-0.5,5.1c-1.5,0.4-3,0.6-4.5,0.6c-2.5,0-4.3-1-5.5-2.7c-1.2-1.8-1.7-4.1-1.4-7.1l3.8-22.9H543l0.9-4.9h6.5
			l1.6-9H558.1z"/>
		<path fill="#666666" d="M578,842h-6.2l6.4-37h6.2L578,842z M583.1,791.5c1,0,1.9,0.3,2.6,0.9c0.7,0.7,1,1.6,1,2.6
			c0,1.1-0.4,1.9-1,2.6c-0.7,0.7-1.5,1-2.6,1.1c-1.1,0-1.9-0.3-2.6-0.9c-0.7-0.7-1-1.5-1-2.6c0-1.1,0.4-2,1-2.7
			C581.2,792,582,791.6,583.1,791.5z"/>
		<path fill="#666666" d="M615.7,804.4c3.1,0,5.8,0.9,8,2.5c2.2,1.6,3.8,3.9,4.9,6.8s1.4,6,1.1,9.5l-0.1,0.8
			c-0.4,3.6-1.5,6.9-3.2,9.8c-1.7,2.9-3.9,5.2-6.6,6.8c-2.7,1.6-5.7,2.4-8.9,2.3c-3.1,0-5.7-0.9-7.9-2.5s-3.8-3.9-4.9-6.7
			c-1-2.8-1.4-5.9-1.1-9.3c0.3-3.8,1.4-7.3,3.1-10.3c1.7-3.1,4-5.4,6.7-7.1C609.4,805.1,612.4,804.3,615.7,804.4z M603.1,824.2
			c-0.2,1.4-0.2,2.9,0,4.5c0.2,2.7,1,4.8,2.4,6.4c1.4,1.6,3.2,2.4,5.5,2.5c2.1,0.1,3.9-0.4,5.7-1.5c1.7-1.1,3.2-2.7,4.4-4.9
			c1.2-2.2,1.9-4.6,2.3-7.3c0.2-2.1,0.2-3.9,0.1-5.3c-0.3-2.8-1.1-4.9-2.5-6.5c-1.4-1.6-3.2-2.4-5.5-2.5c-3.2-0.1-5.9,1.2-8.1,3.8
			c-2.2,2.6-3.6,5.9-4.1,10.1L603.1,824.2z"/>
		<path fill="#666666" d="M653.5,805l-0.9,4.7c3.3-3.6,7.1-5.4,11.3-5.3c3.5,0.1,6.1,1.3,7.7,3.6s2.3,5.6,1.8,9.8l-4,24.2h-6.2
			l4.1-24.3c0.1-1.1,0.1-2.2,0-3.1c-0.4-3.2-2.3-4.8-5.6-4.9c-3.7-0.1-7,1.9-9.8,5.9l-4.6,26.4h-6.2l6.4-37L653.5,805z"/>
		<path fill="#666666" d="M725.8,837.6c2.2,0,4.2-0.6,6-1.9c1.8-1.3,2.9-3.1,3.5-5.2l5.8,0c-0.3,2.3-1.3,4.4-2.8,6.4
			c-1.5,1.9-3.4,3.4-5.7,4.5s-4.7,1.6-7.1,1.5c-3.1,0-5.7-0.8-7.8-2.4c-2.1-1.6-3.7-3.7-4.7-6.5s-1.3-5.9-1-9.4l0.2-1.7
			c0.4-3.6,1.5-6.7,3.1-9.5s3.8-5,6.4-6.5s5.6-2.3,8.8-2.2c3.9,0.1,7,1.4,9.3,3.9c2.3,2.5,3.5,5.7,3.5,9.5l-5.8,0
			c0-2.4-0.7-4.4-2-5.9s-3.1-2.3-5.3-2.4c-3.2-0.1-5.9,1.1-8,3.6c-2.1,2.5-3.5,5.9-4,10.3l-0.1,0.9c-0.1,1.5-0.2,3-0.1,4.5
			c0.2,2.7,0.9,4.8,2.3,6.3C721.6,836.7,723.4,837.5,725.8,837.6z"/>
		<path fill="#666666" d="M773.6,804.4c3.1,0,5.8,0.9,8,2.5s3.8,3.9,4.9,6.8s1.4,6,1.1,9.5l-0.1,0.8c-0.4,3.6-1.5,6.9-3.2,9.8
			c-1.7,2.9-3.9,5.2-6.6,6.8s-5.7,2.4-8.9,2.3c-3.1,0-5.7-0.9-7.9-2.5s-3.8-3.9-4.9-6.7c-1-2.8-1.4-5.9-1.1-9.3
			c0.3-3.8,1.4-7.3,3.1-10.3c1.7-3.1,4-5.4,6.7-7.1C767.3,805.1,770.3,804.3,773.6,804.4z M761,824.2c-0.2,1.4-0.2,2.9,0,4.5
			c0.2,2.7,1,4.8,2.4,6.4c1.4,1.6,3.2,2.4,5.5,2.5c2.1,0.1,3.9-0.4,5.7-1.5c1.7-1.1,3.2-2.7,4.4-4.9s1.9-4.6,2.3-7.3
			c0.2-2.1,0.2-3.9,0.1-5.3c-0.3-2.8-1.1-4.9-2.5-6.5c-1.4-1.6-3.2-2.4-5.5-2.5c-3.2-0.1-5.9,1.2-8.1,3.8c-2.2,2.6-3.6,5.9-4.1,10.1
			L761,824.2z"/>
		<path fill="#666666" d="M811.3,805l-0.8,4.1c3.1-3.3,6.8-4.9,11.2-4.8c2.3,0,4.3,0.6,6,1.6c1.6,1,2.8,2.5,3.4,4.3
			c3.5-4.1,7.6-6,12.3-5.9c3.7,0.1,6.4,1.3,8.2,3.7s2.4,5.6,1.9,9.6l-4.1,24.3h-6.2l4-24.4c0.1-1.2,0.1-2.3,0-3.2
			c-0.4-3.1-2.5-4.7-6.1-4.8c-2.3,0-4.3,0.7-6.1,2.1c-1.8,1.4-3,3.3-3.5,5.7l-4.2,24.6h-6.2l4.1-24.3c0.3-2.5-0.1-4.5-1.1-5.8
			s-2.7-2.1-4.9-2.1c-3.9-0.1-6.9,1.7-9.2,5.3l-4.7,27h-6.2l6.4-37L811.3,805z"/>
		<path fill="#666666" d="M899.5,823.7c-0.5,3.8-1.5,7.1-3,10.2s-3.5,5.3-5.8,6.8c-2.3,1.5-4.9,2.2-7.7,2.1
			c-4.3-0.1-7.6-1.5-9.8-4.3l-3.3,17.8h-6.2l8.9-51.2l5.6,0l-0.7,4.1c3.1-3.3,6.7-4.9,11-4.8c3.6,0.1,6.3,1.4,8.3,3.9s3,6,3.1,10.5
			c0,1.5,0,2.9-0.2,4.2L899.5,823.7z M893.4,823l0.2-2.9c0-3.3-0.6-5.9-1.9-7.6c-1.3-1.8-3.1-2.7-5.5-2.8c-3.6-0.1-6.7,1.6-9.3,5.1
			l-3.1,17.7c1.4,3.3,3.9,5,7.5,5.1c3.1,0.1,5.7-1.1,7.8-3.6C891.3,831.5,892.7,827.9,893.4,823z"/>
		<path fill="#666666" d="M934,842c-0.2-0.7-0.2-1.3-0.2-1.9l0.1-1.9c-3.4,3.1-7,4.7-10.8,4.6c-3.3,0-5.9-1.1-7.9-3.1
			c-2-2-3-4.5-2.8-7.6c0.2-3.9,1.9-7,5.1-9.2c3.2-2.2,7.4-3.3,12.6-3.3l6.5,0l0.4-2.9c0.2-2.2-0.2-4-1.3-5.2c-1.1-1.3-2.7-2-4.9-2
			c-2.1,0-4,0.5-5.6,1.6c-1.6,1.1-2.6,2.5-3,4.3l-6.2,0c0.2-2.2,1-4.1,2.5-5.8c1.5-1.7,3.4-3,5.7-3.9c2.3-0.9,4.7-1.4,7.2-1.3
			c3.9,0.1,6.8,1.3,9,3.5c2.1,2.2,3,5.2,2.7,8.9l-3,18.3l-0.2,2.6c0,1.3,0.1,2.5,0.4,3.7l-0.1,0.6H934z M924.3,837.2
			c2,0,3.9-0.4,5.6-1.4c1.8-1,3.3-2.4,4.6-4.1l1.3-7.6l-4.7,0c-3.9,0-6.9,0.6-9,1.8c-2.1,1.2-3.2,3-3.5,5.2
			c-0.2,1.7,0.2,3.2,1.2,4.3C920.9,836.6,922.4,837.2,924.3,837.2z"/>
		<path fill="#666666" d="M968,805l-0.9,4.7c3.3-3.6,7.1-5.4,11.3-5.3c3.5,0.1,6.1,1.3,7.7,3.6c1.7,2.3,2.3,5.6,1.8,9.8l-4,24.2
			h-6.2l4.1-24.3c0.1-1.1,0.1-2.2,0-3.1c-0.4-3.2-2.3-4.8-5.6-4.9c-3.7-0.1-7,1.9-9.8,5.9l-4.6,26.4h-6.2l6.4-37L968,805z"/>
		<path fill="#666666" d="M1013.8,832.7l13.2-27.7h6.8l-21.9,43.1c-3.1,6-7,9-11.8,8.9c-0.8,0-2.1-0.2-3.7-0.6l0.5-5.1l1.6,0.2
			c2,0.1,3.7-0.3,5.1-1.3c1.4-1,2.7-2.5,3.8-4.7l2.2-4.2l-6.4-36.2h6.5L1013.8,832.7z"/>
	</g>
</g>
</svg>
